<svg width="28" height="28" viewBox="0 0 28 28" fill="none" xmlns="http://www.w3.org/2000/svg">
<path d="M14 1.16663L3.5 5.83329V12.8333C3.5 19.3083 7.98 25.3633 14 26.8333C20.02 25.3633 24.5 19.3083 24.5 12.8333V5.83329L14 1.16663ZM14 3.70996L22.1667 7.34996V13.09C22.1667 15.0733 21.5833 17.0916 20.5917 18.865C18.6667 17.43 15.47 16.9166 14 16.9166C12.53 16.9166 9.33333 17.43 7.40833 18.865C6.41667 17.0916 5.83333 15.0733 5.83333 13.09V7.34996L14 3.70996ZM14 6.99996C12.917 6.99996 11.8784 7.43017 11.1126 8.19594C10.3469 8.96171 9.91667 10.0003 9.91667 11.0833C9.91667 12.1663 10.3469 13.2049 11.1126 13.9706C11.8784 14.7364 12.917 15.1666 14 15.1666C15.083 15.1666 16.1216 14.7364 16.8874 13.9706C17.6531 13.2049 18.0833 12.1663 18.0833 11.0833C18.0833 10.0003 17.6531 8.96171 16.8874 8.19594C16.1216 7.43017 15.083 6.99996 14 6.99996ZM14 9.33329C14.4641 9.33329 14.9092 9.51767 15.2374 9.84586C15.5656 10.174 15.75 10.6192 15.75 11.0833C15.75 11.5474 15.5656 11.9925 15.2374 12.3207C14.9092 12.6489 14.4641 12.8333 14 12.8333C13.5359 12.8333 13.0908 12.6489 12.7626 12.3207C12.4344 11.9925 12.25 11.5474 12.25 11.0833C12.25 10.6192 12.4344 10.174 12.7626 9.84586C13.0908 9.51767 13.5359 9.33329 14 9.33329ZM14 19.25C15.8317 19.25 18.2467 19.9616 19.285 20.8133C17.8383 22.61 15.9833 23.975 14 24.5C12.0167 23.975 10.1617 22.61 8.715 20.8133C9.765 19.9616 12.1683 19.25 14 19.25Z" fill="black"/>
</svg>
